<?xml version="1.0" encoding="UTF-8" standalone="no"?>
<svg
   xmlns:dc="http://purl.org/dc/elements/1.1/"
   xmlns:cc="http://creativecommons.org/ns#"
   xmlns:rdf="http://www.w3.org/1999/02/22-rdf-syntax-ns#"
   xmlns:svg="http://www.w3.org/2000/svg"
   xmlns="http://www.w3.org/2000/svg"
   xmlns:sodipodi="http://sodipodi.sourceforge.net/DTD/sodipodi-0.dtd"
   xmlns:inkscape="http://www.inkscape.org/namespaces/inkscape"
   version="1.1"
   x="0px"
   y="0px"
   viewBox="0 0 75 75"
   xml:space="preserve"
   id="svg28"
   sodipodi:docname="noun_1142473_cc.svg"
   width="75"
   height="75"
   inkscape:version="0.92.2 5c3e80d, 2017-08-06"><metadata
     id="metadata34"><rdf:RDF><cc:Work
         rdf:about=""><dc:format>image/svg+xml</dc:format><dc:type
           rdf:resource="http://purl.org/dc/dcmitype/StillImage" /><dc:title></dc:title></cc:Work></rdf:RDF></metadata><defs
     id="defs32" /><sodipodi:namedview
     pagecolor="#ffffff"
     bordercolor="#666666"
     borderopacity="1"
     objecttolerance="10"
     gridtolerance="10"
     guidetolerance="10"
     inkscape:pageopacity="0"
     inkscape:pageshadow="2"
     inkscape:window-width="725"
     inkscape:window-height="480"
     id="namedview30"
     showgrid="false"
     inkscape:zoom="2.8606061"
     inkscape:cx="33"
     inkscape:cy="41.25"
     inkscape:window-x="0"
     inkscape:window-y="0"
     inkscape:window-maximized="0"
     inkscape:current-layer="svg28" /><style
     type="text/css"
     id="style2">
	.st0{fill:#000100;}
</style><g
     id="g22"
     transform="translate(4.8940678,3.6864407)"><path
       class="st0"
       d="m 10,39.1 h 46 c 0.4,0 0.8,-0.3 0.8,-0.8 V 10 C 56.8,9.6 56.5,9.2 56,9.2 H 10 C 9.6,9.2 9.2,9.5 9.2,10 v 28.3 c 0.1,0.5 0.4,0.8 0.8,0.8 z M 10.8,10.8 H 55.3 V 37.6 H 10.8 Z"
       id="path4"
       inkscape:connector-curvature="0"
       style="fill:#000100" /><path
       class="st0"
       d="M 65.7,59.7 60.8,43.5 V 6 C 60.8,5.6 60.5,5.2 60,5.2 H 6 C 5.5,5.3 5.2,5.6 5.2,6 V 43.5 L 0.3,59.7 c -0.1,0.5 0.2,1 0.7,1 h 64 c 0.5,0 0.9,-0.5 0.7,-1 z M 59.3,6.8 V 42.9 H 6.7 V 6.8 Z M 2,59.2 6.5,44.4 h 53 L 64,59.2 Z"
       id="path6"
       inkscape:connector-curvature="0"
       style="fill:#000100" /><path
       class="st0"
       d="M 41.3,54.6 39.5,50.3 C 39.4,50 39.1,49.8 38.8,49.8 H 27.2 c -0.3,0 -0.6,0.2 -0.7,0.5 l -1.8,4.3 c -0.2,0.5 0.2,1 0.7,1 h 15.3 c 0.5,0 0.8,-0.5 0.6,-1 z m -14.8,-0.5 1.2,-2.8 h 10.6 l 1.2,2.8 z"
       id="path8"
       inkscape:connector-curvature="0"
       style="fill:#000100" /><path
       class="st0"
       d="m 36.6,40.2 h -7.1 c -0.4,0 -0.8,0.3 -0.8,0.8 0,0.5 0.3,0.8 0.8,0.8 h 7.1 c 0.4,0 0.8,-0.3 0.8,-0.8 0,-0.5 -0.4,-0.8 -0.8,-0.8 z"
       id="path10"
       inkscape:connector-curvature="0"
       style="fill:#000100" /><path
       class="st0"
       d="M 52.3,13 H 28 c -0.4,0 -0.8,0.3 -0.8,0.8 v 13.5 c 0,0.4 0.3,0.8 0.8,0.8 h 8.1 c 0.4,0 0.8,-0.3 0.8,-0.8 0,-0.5 -0.3,-0.8 -0.8,-0.8 h -7.4 v -12 h 22.8 v 12 H 48 c -0.4,0 -0.8,0.3 -0.8,0.8 0,0.5 0.4,0.7 0.8,0.7 h 4.3 c 0.4,0 0.8,-0.3 0.8,-0.8 V 13.8 C 53.1,13.3 52.7,13 52.3,13 Z"
       id="path12"
       inkscape:connector-curvature="0"
       style="fill:#000100" /><path
       class="st0"
       d="m 22.9,13 h -9.2 c -0.4,0 -0.8,0.3 -0.8,0.8 v 7 c 0,0.4 0.3,0.8 0.8,0.8 h 9.2 c 0.4,0 0.8,-0.3 0.8,-0.8 v -7 C 23.6,13.3 23.3,13 22.9,13 Z m -0.8,7 h -7.7 v -5.5 h 7.7 z"
       id="path14"
       inkscape:connector-curvature="0"
       style="fill:#000100" /><path
       class="st0"
       d="m 22.9,26.1 h -9.2 c -0.4,0 -0.8,0.3 -0.8,0.8 0,0.5 0.3,0.8 0.8,0.8 h 9.2 c 0.4,0 0.8,-0.3 0.8,-0.8 0,-0.5 -0.4,-0.8 -0.8,-0.8 z"
       id="path16"
       inkscape:connector-curvature="0"
       style="fill:#000100" /><path
       class="st0"
       d="m 22.9,31.7 h -9.2 c -0.4,0 -0.8,0.3 -0.8,0.8 0,0.5 0.3,0.8 0.8,0.8 h 9.2 c 0.4,0 0.8,-0.3 0.8,-0.8 0,-0.5 -0.4,-0.8 -0.8,-0.8 z"
       id="path18"
       inkscape:connector-curvature="0"
       style="fill:#000100" /><path
       class="st0"
       d="m 45.3,27 2,-1.3 c 0.5,-0.3 0.4,-1.1 -0.1,-1.3 l -8.1,-3 c -0.5,-0.2 -1,0.2 -1,0.7 l -0.6,8.7 c 0,0.6 0.6,1 1.2,0.7 l 2,-1.3 3.1,4.4 c 0.2,0.3 0.7,0.4 1,0.2 l 3.4,-2.2 c 0.2,-0.1 0.3,-0.3 0.3,-0.5 0,-0.2 0,-0.4 -0.1,-0.6 z m -0.8,6 -3.1,-4.4 c -0.2,-0.3 -0.7,-0.4 -1,-0.2 l -1.4,0.9 0.4,-6.2 5.8,2.2 -1.4,0.9 c -0.4,0.2 -0.4,0.7 -0.2,1.1 l 3.1,4.3 z"
       id="path20"
       inkscape:connector-curvature="0"
       style="fill:#000100" /></g></svg>